<svg width="106" height="16" viewBox="0 0 106 16" xmlns:xlink="http://www.w3.org/1999/xlink" xmlns="http://www.w3.org/2000/svg"><symbol id="a"><path d="M4.99 7.1c-.203-.864 1.716-1.778 1.363-2.946-.282-.932-1.978-2.935-3.234-1.83C1.862 3.43.804 6.704 4.963 11.006c4.16 4.3 7.298 2.88 8.005 2.29.706-.593 1.3-1.616.902-2.212-.423-.632-1.56-1.7-2.317-1.623-.754.077-1.02.586-1.568 1.15-.548.565-1.06.87-1.962 0-.903-.868-2.882-2.855-3.035-3.51z"/></symbol><use xlink:href="#a" fill="#3d3e42"/><use xlink:href="#a" x="18" fill="#fff"/><use xlink:href="#a" x="36" fill="#0f8fee"/><use xlink:href="#a" x="54" fill="#8cb900"/><use xlink:href="#a" x="72" fill="#d6001c"/></svg>